{
  "accessors": [
    {
      "bufferView": 1,
      "componentType": 5126,
      "count": 65532,
      "max": [
        0.03776208683848381,
        0.042365092784166336,
        0.048179853707551956
      ],
      "min": [
        -0.03775188699364662,
        -0.03962322697043419,
        -0.02375144511461258
      ],
      "type": "VEC3"
    },
    {
      "bufferView": 1,
      "byteOffset": 786384,
      "componentType": 5126,
      "count": 65532,
      "max": [
        1.0,
        1.0,
        0.9931821823120117
      ],
      "min": [
        -0.9992883205413818,
        -1.0,
        -1.0
      ],
      "type": "VEC3"
    },
    {
      "bufferView": 0,
      "componentType": 5125,
      "count": 384597,
      "type": "SCALAR"
    },
    {
      "bufferView": 1,
      "byteOffset": 1572768,
      "componentType": 5126,
      "count": 65532,
      "max": [
        0.037990596145391464,
        0.06754273921251297,
        0.058638330549001694
      ],
      "min": [
        -0.03798608481884003,
        -0.03985719382762909,
        -0.020657913759350777
      ],
      "type": "VEC3"
    },
    {
      "bufferView": 1,
      "byteOffset": 2359152,
      "componentType": 5126,
      "count": 65532,
      "max": [
        1.0,
        0.9999862909317017,
        1.0
      ],
      "min": [
        -0.9999998807907104,
        -0.9999997615814209,
        -0.9998704195022583
      ],
      "type": "VEC3"
    },
    {
      "bufferView": 0,
      "byteOffset": 1538388,
      "componentType": 5125,
      "count": 384978,
      "type": "SCALAR"
    },
    {
      "bufferView": 1,
      "byteOffset": 3145536,
      "componentType": 5126,
      "count": 28101,
      "max": [
        0.03791994974017143,
        0.03592284396290779,
        0.058638330549001694
      ],
      "min": [
        -0.03791806474328041,
        -0.039782531559467316,
        -0.02375144511461258
      ],
      "type": "VEC3"
    },
    {
      "bufferView": 1,
      "byteOffset": 3482748,
      "componentType": 5126,
      "count": 28101,
      "max": [
        1.0,
        1.0,
        1.0
      ],
      "min": [
        -1.0,
        -1.0,
        -1.0
      ],
      "type": "VEC3"
    },
    {
      "bufferView": 0,
      "byteOffset": 3078300,
      "componentType": 5125,
      "count": 147729,
      "type": "SCALAR"
    }
  ],
  "asset": {
    "extras": {
      "author": "YouniqueĪdeaStudio (https://sketchfab.com/sinnervoncrawsz)",
      "license": "CC-BY-4.0 (http://creativecommons.org/licenses/by/4.0/)",
      "source": "https://sketchfab.com/3d-models/mug-cup-371febc7198f40179b9b84e60bfcf1ab",
      "title": "MUG - CUP"
    },
    "generator": "Sketchfab-15.53.0",
    "version": "2.0"
  },
  "bufferViews": [
    {
      "buffer": 0,
      "byteLength": 3669216,
      "name": "floatBufferViews",
      "target": 34963
    },
    {
      "buffer": 0,
      "byteLength": 3819960,
      "byteOffset": 3669216,
      "byteStride": 12,
      "name": "floatBufferViews",
      "target": 34962
    }
  ],
  "buffers": [
    {
      "byteLength": 7489176,
      "uri": "scene.bin"
    }
  ],
  "extensionsUsed": [
    "KHR_materials_clearcoat"
  ],
  "materials": [
    {
      "doubleSided": true,
      "extensions": {
        "KHR_materials_clearcoat": {
          "clearcoatFactor": 1.0,
          "clearcoatRoughnessFactor": 0.04
        }
      },
      "name": "Scene_-_Root",
      "pbrMetallicRoughness": {
        "metallicFactor": 0.0,
        "roughnessFactor": 0.75
      }
    }
  ],
  "meshes": [
    {
      "name": "CUP__0",
      "primitives": [
        {
          "attributes": {
            "NORMAL": 1,
            "POSITION": 0
          },
          "indices": 2,
          "material": 0,
          "mode": 4
        }
      ]
    },
    {
      "name": "CUP__0",
      "primitives": [
        {
          "attributes": {
            "NORMAL": 4,
            "POSITION": 3
          },
          "indices": 5,
          "material": 0,
          "mode": 4
        }
      ]
    },
    {
      "name": "CUP__0",
      "primitives": [
        {
          "attributes": {
            "NORMAL": 7,
            "POSITION": 6
          },
          "indices": 8,
          "material": 0,
          "mode": 4
        }
      ]
    }
  ],
  "nodes": [
    {
      "children": [
        1
      ],
      "matrix": [
        0.012884384952485561,
        0.0,
        0.0,
        0.0,
        0.0,
        2.8609081664766748e-18,
        -0.012884384952485561,
        0.0,
        0.0,
        0.012884384952485561,
        2.8609081664766748e-18,
        0.0,
        0.0,
        0.0,
        0.0,
        1.0
      ],
      "name": "Sketchfab_model"
    },
    {
      "children": [
        2
      ],
      "matrix": [
        1.0,
        0.0,
        0.0,
        0.0,
        0.0,
        0.0,
        1.0,
        0.0,
        0.0,
        -1.0,
        0.0,
        0.0,
        0.0,
        0.0,
        0.0,
        1.0
      ],
      "name": "52ad5ec1f3fe4b8b92a476046e8f6efe.fbx"
    },
    {
      "children": [
        3
      ],
      "name": "RootNode"
    },
    {
      "children": [
        4,
        5,
        6
      ],
      "matrix": [
        100.0,
        0.0,
        0.0,
        0.0,
        -0.0,
        -1.629206793918314e-05,
        -99.99999999999868,
        0.0,
        0.0,
        99.99999999999868,
        -1.629206793918314e-05,
        0.0,
        -0.17586055397987366,
        1.0992776878993027e-05,
        6.232100702163734e-08,
        1.0
      ],
      "name": "CUP"
    },
    {
      "mesh": 0,
      "name": "CUP__0"
    },
    {
      "mesh": 1,
      "name": "CUP__0"
    },
    {
      "mesh": 2,
      "name": "CUP__0"
    }
  ],
  "scene": 0,
  "scenes": [
    {
      "name": "Sketchfab_Scene",
      "nodes": [
        0
      ]
    }
  ]
}
